bicep_curl
version=1
nRows=12
nColumns=17
inDegrees=yes

# SIMM Motion File Header:
name bicep_curl
datacolumns 17
datarows 12
otherdata 1
range 0.40000318000000001373 0.40599530999999999814
endheader
time	/jointset/r_shoulder/r_shoulder_elev/value	/jointset/r_shoulder/r_shoulder_elev/speed	/jointset/r_elbow/r_elbow_flex/value	/jointset/r_elbow/r_elbow_flex/speed	/forceset/TRIlong/activation	/forceset/TRIlong/fiber_length	/forceset/TRIlat/activation	/forceset/TRIlat/fiber_length	/forceset/TRImed/activation	/forceset/TRImed/fiber_length	/forceset/BIClong/activation	/forceset/BIClong/fiber_length	/forceset/BICshort/activation	/forceset/BICshort/fiber_length	/forceset/BRA/activation	/forceset/BRA/fiber_length
0.40000318000000001373	     -0.23059817171321708718	     -0.78173074141800380499	    103.71016083306781752071	    259.10657925302598414419	      0.02289860000085187225	      0.17398503814193677641	      0.20682878546187313806	      0.10759131781762820701	      0.20416303880596597953	      0.10264934088187799288	      0.93790280024005345805	      0.08394313719248538974	      0.21054869986982360786	      0.08507167687437100501	      0.02109012275630866434	      0.06320426161228812068
0.40001113999999998727	     -0.23060439469515492394	     -0.78183255495693559922	    103.71222332196855120401	    259.10671234257705464188	      0.02289829179406825677	      0.17398571599056034120	      0.20685588147345249088	      0.10759201747852842335	      0.20418952468641632381	      0.10265003918632319146	      0.93792871651190612425	      0.08394131428407455853	      0.21076288056058808951	      0.08507005295139861978	      0.02109000743245305690	      0.06320340440271828009
0.40005094000000002152	     -0.23063552174311713339	     -0.78234043746820847165	    103.72253578227886805507	    259.10737179970016086372	      0.02289675125564945984	      0.17398910732762420950	      0.20699094272838858277	      0.10759550564595614375	      0.20432154313725980899	      0.10265352075999450987	      0.93805812781903896713	      0.08393219983641905801	      0.21182940238316069759	      0.08506189973484760969	      0.02108943099671293717	      0.06319911830012929499
0.40024990999999998653	     -0.23079143169473106956	     -0.78480671403346058401	    103.77409068338153019795	    259.11035201296505192659	      0.02288906209489902435	      0.17400609715856180104	      0.20765580134624023190	      0.10761272079761978471	      0.20497138422214941644	      0.10267070883752887900	      0.93870085761038557504	      0.08388663702158176416	      0.21705407618882488485	      0.08502032456342777100	      0.02108655383463502869	      0.06317768965635472966
0.40124478000000002309	     -0.23157674511729062217	     -0.79232270833685836120	    104.03187272002108443303	    259.10583508245633765910	      0.02285092304218976425	      0.17409102960081251910	      0.21073593341343141438	      0.10769565376560684411	      0.20798103980249713074	      0.10275369542289990166	      0.94181140078250669134	      0.08365890503330640493	      0.24076356927349421011	      0.08479488851231486990	      0.02107228166006743994	      0.06307051182811504453
0.40195321000000000522	     -0.23213778278781138642	     -0.79078391602897846191	    104.21542203544433391471	    259.07695291745670829187	      0.02282407460650373934	      0.17415215164104869139	      0.21270202676617919191	      0.10775353755647251730	      0.20990128367830260259	      0.10281177055470555604	      0.94392542930010570057	      0.08349686183981808174	      0.25554009341682593082	      0.08462039033118326503	      0.02106223345084520110	      0.06299416312399339080
0.40266164999999998209	     -0.23269580262606184839	     -0.78383512075071382075	    104.39894691598753695416	    259.03062752176623462219	      0.02279748062695914276	      0.17421224138045693364	      0.21449902494499584193	      0.10781136971020297000	      0.21165570491977031553	      0.10286985842546671199	      0.94595943769482127017	      0.08333494793551320112	      0.26885582556957443590	      0.08443763163451482867	      0.02105227954179209049	      0.06291779529377707070
0.40337008000000001973	     -0.23324740572451552190	     -0.77302926958667106394	    104.58243180804969085784	    258.97221378736719543667	      0.02277113939838713505	      0.17427347208063873052	      0.21614239410216837256	      0.10786943201354011468	      0.21325951031356757404	      0.10292819662954509619	      0.94791663973779027863	      0.08317319170637613168	      0.28090982623506904892	      0.08424894459194537388	      0.02104241932107962093	      0.06284141620490760194
0.40407851999999999659	     -0.23379024979660570360	     -0.75912638645073116095	    104.76587561978698204257	    258.90861902443276676422	      0.02274504774551333944	      0.17433333667302447489	      0.21764611433312680555	      0.10792783177344988932	      0.21472644402415921872	      0.10298686589983513384	      0.94980021020929239484	      0.08301160926763541392	      0.29186440714927658346	      0.08405618239400013125	      0.02103265162602331942	      0.06276502851468156174
0.40478694999999997872	     -0.23432261916380509037	     -0.74385961453326177040	    104.94927151211527416308	    258.84481025028048861714	      0.02271920399746660615	      0.17439484356165349532	      0.21902268107631361893	      0.10798657972316398623	      0.21606879012025761999	      0.10304586244013513863	      0.95161307207870615699	      0.08285022279540618650	      0.30185280262017738506	      0.08386082578408780852	      0.02102297585653048820	      0.06268863786121121884
0.40539112999999998843	     -0.23476784024969768461	     -0.72996115419387097578	    105.10564496282687230178	    258.79477709063399970546	      0.02269735710598203698	      0.17444574328546308406	      0.22010475556354808235	      0.10803694959695459010	      0.21712356124475071240	      0.10309642327300128084	      0.95310545264520130093	      0.08271274942807776975	      0.30969240090979732738	      0.08369304610665116717	      0.02101479580662812818	      0.06262348681876578338
0.40599530999999999814	     -0.23520469592060730402	     -0.71628964221850544014	    105.26198990171656078019	    258.75073989945894936682	      0.02267568705794623801	      0.17449767445581479408	      0.22110897884229727128	      0.10808755021743240987	      0.21810209690490067747	      0.10314719495831128904	      0.95455017990968760166	      0.08257543493786656530	      0.31696985547768530278	      0.08352479997985663707	      0.02100668135290572128	      0.06255833453742107308
